<svg xmlns="http://www.w3.org/2000/svg" width="50.455" height="57.663" viewBox="0 0 50.455 57.663">
  <path id="Icon_awesome-passport" data-name="Icon awesome-passport" d="M14.6,19.822H19a25.413,25.413,0,0,1,1.6-7.93,10.794,10.794,0,0,0-6,7.93Zm0,3.6a10.8,10.8,0,0,0,6,7.93,25.381,25.381,0,0,1-1.6-7.93H14.6Zm10.629,8.862c.866-.839,2.339-3.877,2.639-8.862H22.588c.3,4.985,1.774,8.023,2.64,8.862ZM22.589,19.822h5.279c-.3-4.985-1.773-8.023-2.639-8.862C24.362,11.8,22.888,14.837,22.589,19.822Zm7.265,11.534a10.794,10.794,0,0,0,6-7.93h-4.4A25.381,25.381,0,0,1,29.854,31.356ZM46.851,0H7.208A7.207,7.207,0,0,0,0,7.208V50.455a7.207,7.207,0,0,0,7.208,7.208H46.851a3.6,3.6,0,0,0,3.6-3.6V3.6A3.6,3.6,0,0,0,46.851,0Zm-9.01,46.851H12.614a1.8,1.8,0,0,1,0-3.6H37.842a1.8,1.8,0,1,1,0,3.6ZM25.228,36.04A14.416,14.416,0,1,1,39.643,21.624,14.416,14.416,0,0,1,25.228,36.04Zm4.627-24.148a25.381,25.381,0,0,1,1.6,7.93h4.4a10.794,10.794,0,0,0-6-7.93Z" fill="#717171"/>
</svg>
